<svg width="48" height="48" viewBox="0 0 48 48" fill="none" xmlns="http://www.w3.org/2000/svg">
<rect width="48" height="48" fill="#323238"/>
<path d="M30.6667 17.3333C32.7221 17.3333 34.6934 18.0708 36.1468 19.3836C37.6002 20.6964 38.4167 22.4768 38.4167 24.3333V32.5H33.25V24.3333C33.25 23.7145 32.9778 23.121 32.4934 22.6834C32.0089 22.2458 31.3518 22 30.6667 22C29.9815 22 29.3245 22.2458 28.84 22.6834C28.3555 23.121 28.0834 23.7145 28.0834 24.3333V32.5H22.9167V24.3333C22.9167 22.4768 23.7332 20.6964 25.1866 19.3836C26.64 18.0708 28.6113 17.3333 30.6667 17.3333V17.3333Z" stroke="white" stroke-width="2" stroke-linecap="round" stroke-linejoin="round"/>
<path d="M17.75 18.5H12.5833V32.5H17.75V18.5Z" stroke="white" stroke-width="2" stroke-linecap="round" stroke-linejoin="round"/>
<path d="M15.1666 15C16.5934 15 17.75 13.9553 17.75 12.6667C17.75 11.378 16.5934 10.3333 15.1666 10.3333C13.7399 10.3333 12.5833 11.378 12.5833 12.6667C12.5833 13.9553 13.7399 15 15.1666 15Z" stroke="white" stroke-width="2" stroke-linecap="round" stroke-linejoin="round"/>
</svg>
